<svg width="127" height="23" viewBox="0 0 127 23" fill="none" xmlns="http://www.w3.org/2000/svg">
<path d="M4.52 22.24C3.224 22.24 2.192 21.928 1.424 21.304C0.656 20.664 0.272 19.68 0.272 18.352C0.272 17.104 0.64 16.144 1.376 15.472C2.112 14.8 3.16 14.464 4.52 14.464H8.552V13.6C8.552 12.736 8.32 12.08 7.856 11.632C7.392 11.168 6.656 10.936 5.648 10.936C4.704 10.936 3.944 11.144 3.368 11.56C2.792 11.96 2.32 12.432 1.952 12.976L0.00800008 11.272C0.28 10.856 0.592 10.48 0.944 10.144C1.312 9.792 1.728 9.496 2.192 9.256C2.672 9 3.208 8.808 3.8 8.68C4.408 8.536 5.088 8.464 5.84 8.464C7.392 8.464 8.664 8.776 9.656 9.4C9.736 8.936 9.928 8.608 10.232 8.416C10.552 8.208 10.96 8.104 11.456 8.104H14.264V10.648H10.904V10.744C11.384 11.464 11.624 12.376 11.624 13.48V22H8.552V16.456H5.552C4.128 16.456 3.416 17.024 3.416 18.16V18.616C3.416 19.176 3.576 19.616 3.896 19.936C4.216 20.256 4.656 20.416 5.216 20.416C5.472 20.416 5.696 20.392 5.888 20.344L6.104 22.072C5.976 22.12 5.744 22.16 5.408 22.192C5.072 22.224 4.776 22.24 4.52 22.24ZM19.6841 22.24C18.3881 22.24 17.3561 21.928 16.5881 21.304C15.8201 20.664 15.4361 19.68 15.4361 18.352C15.4361 17.104 15.8041 16.144 16.5401 15.472C17.2761 14.8 18.3241 14.464 19.6841 14.464H23.7161V13.6C23.7161 12.736 23.4841 12.08 23.0201 11.632C22.5561 11.168 21.8201 10.936 20.8121 10.936C19.8681 10.936 19.1081 11.144 18.5321 11.56C17.9561 11.96 17.4841 12.432 17.1161 12.976L15.1721 11.272C15.4441 10.856 15.7561 10.48 16.1081 10.144C16.4761 9.792 16.8921 9.496 17.3561 9.256C17.8361 9 18.3721 8.808 18.9641 8.68C19.5721 8.536 20.2521 8.464 21.0041 8.464C22.9081 8.464 24.3481 8.896 25.3241 9.76C26.3001 10.624 26.7881 11.864 26.7881 13.48V22H23.7161V16.456H20.7161C19.2921 16.456 18.5801 17.024 18.5801 18.16V18.616C18.5801 19.176 18.7401 19.616 19.0601 19.936C19.3801 20.256 19.8201 20.416 20.3801 20.416C20.6361 20.416 20.8601 20.392 21.0521 20.344L21.2681 22.072C21.1401 22.12 20.9081 22.16 20.5721 22.192C20.2361 22.224 19.9401 22.24 19.6841 22.24ZM19.3809 6.832C18.5809 6.832 17.9409 6.576 17.4609 6.064C16.9649 5.536 16.7169 4.816 16.7169 3.904C16.7169 2.944 17.0129 2.168 17.6049 1.576C18.1809 0.983999 18.9969 0.687998 20.0529 0.687998H26.7969V2.584H20.0769C19.7249 2.584 19.4609 2.704 19.2849 2.944C19.0929 3.168 18.9969 3.464 18.9969 3.832C18.9969 4.2 19.0769 4.488 19.2369 4.696C19.3969 4.888 19.6289 4.984 19.9329 4.984C20.1249 4.984 20.2849 4.944 20.4129 4.864C20.5249 4.768 20.6209 4.656 20.7009 4.528C20.7649 4.4 20.8129 4.256 20.8449 4.096C20.8769 3.936 20.8929 3.792 20.8929 3.664H22.6209C22.6209 3.792 22.6369 3.936 22.6689 4.096C22.7009 4.256 22.7569 4.4 22.8369 4.528C22.9009 4.656 22.9969 4.768 23.1249 4.864C23.2369 4.944 23.3889 4.984 23.5809 4.984C23.8849 4.984 24.1169 4.888 24.2769 4.696C24.4369 4.488 24.5169 4.2 24.5169 3.832V3.304H26.7969V4.12C26.7969 4.984 26.5569 5.656 26.0769 6.136C25.5969 6.6 24.9489 6.832 24.1329 6.832C23.6049 6.832 23.1329 6.712 22.7169 6.472C22.2849 6.232 21.9809 5.824 21.8049 5.248H21.7089C21.5329 5.824 21.2369 6.232 20.8209 6.472C20.3889 6.712 19.9089 6.832 19.3809 6.832ZM35.4221 22.288C34.5901 22.288 33.8221 22.176 33.1181 21.952C32.4141 21.712 31.8061 21.392 31.2941 20.992C30.7821 20.576 30.3821 20.088 30.0941 19.528C29.8061 18.952 29.6621 18.32 29.6621 17.632V16.432C29.6621 15.824 29.8141 15.352 30.1181 15.016C30.4381 14.664 30.9421 14.488 31.6301 14.488H34.4141V16.816H32.4701V17.392C32.4701 18.224 32.7421 18.856 33.2861 19.288C33.8301 19.704 34.5821 19.912 35.5421 19.912C36.4701 19.912 37.1901 19.608 37.7021 19C38.2141 18.392 38.4701 17.552 38.4701 16.48V14.344C38.4701 13.272 38.1821 12.44 37.6061 11.848C37.0301 11.24 36.2221 10.936 35.1821 10.936C34.2541 10.936 33.4541 11.136 32.7821 11.536C32.1261 11.936 31.6381 12.376 31.3181 12.856L29.4461 11.176C29.9101 10.408 30.6301 9.768 31.6061 9.256C32.5981 8.728 33.8301 8.464 35.3021 8.464C36.3101 8.464 37.2061 8.624 37.9901 8.944C38.7741 9.248 39.4381 9.704 39.9821 10.312C40.5421 10.904 40.9661 11.632 41.2541 12.496C41.5421 13.344 41.6861 14.304 41.6861 15.376C41.6861 17.536 41.1421 19.232 40.0541 20.464C38.9661 21.68 37.4221 22.288 35.4221 22.288ZM49.9333 22.288C47.9973 22.288 46.5093 21.704 45.4693 20.536C44.4293 19.352 43.9093 17.616 43.9093 15.328C43.9093 13.104 44.2533 11.408 44.9413 10.24C45.6293 9.056 46.6693 8.464 48.0613 8.464C48.7973 8.464 49.4133 8.664 49.9093 9.064C50.4053 9.448 50.7173 10 50.8453 10.72H50.9893C51.1173 10 51.4533 9.448 51.9973 9.064C52.5413 8.664 53.2133 8.464 54.0133 8.464C55.0053 8.464 55.7893 8.8 56.3653 9.472C56.9573 10.128 57.2533 11.04 57.2533 12.208V22H54.1813V12.568C54.1813 12.056 54.0773 11.672 53.8693 11.416C53.6773 11.16 53.4053 11.032 53.0533 11.032C52.6213 11.032 52.3093 11.2 52.1173 11.536C51.9413 11.872 51.8133 12.296 51.7333 12.808H49.8853C49.8213 12.312 49.7093 11.896 49.5493 11.56C49.3893 11.208 49.0773 11.032 48.6133 11.032C48.0693 11.032 47.6853 11.296 47.4613 11.824C47.2533 12.352 47.1493 13.088 47.1493 14.032V16.456C47.1493 16.968 47.2053 17.432 47.3173 17.848C47.4293 18.248 47.6133 18.6 47.8693 18.904C48.1253 19.192 48.4613 19.416 48.8773 19.576C49.2933 19.736 49.8053 19.816 50.4133 19.816C50.7173 19.816 51.0213 19.784 51.3253 19.72L51.6853 22.12C51.4613 22.184 51.1813 22.224 50.8453 22.24C50.5093 22.272 50.2053 22.288 49.9333 22.288ZM60.6588 8.752H63.7308V12.616L66.9228 12.16C67.4668 12.08 67.8748 11.912 68.1468 11.656C68.4348 11.4 68.6108 10.968 68.6748 10.36L68.8428 8.752H72.0108L71.8428 10.456C71.7628 11.192 71.4748 11.808 70.9788 12.304C70.4828 12.8 69.7948 13.096 68.9148 13.192V13.312C69.4588 13.408 69.9068 13.608 70.2588 13.912C70.6108 14.2 70.8908 14.536 71.0988 14.92C71.3228 15.304 71.4828 15.72 71.5788 16.168C71.6908 16.616 71.7708 17.04 71.8188 17.44L72.2508 22H69.0588L68.6508 17.248C68.5708 16.336 68.3548 15.664 68.0028 15.232C67.6668 14.8 67.0588 14.64 66.1788 14.752L63.7308 15.064V22H60.6588V8.752ZM80.1536 22.288C78.9056 22.288 77.8416 22.08 76.9616 21.664C76.0976 21.248 75.3376 20.656 74.6816 19.888L76.5776 18.088C77.0416 18.648 77.5856 19.088 78.2096 19.408C78.8336 19.712 79.5376 19.864 80.3216 19.864C81.1376 19.864 81.7216 19.728 82.0736 19.456C82.4416 19.184 82.6256 18.808 82.6256 18.328C82.6256 17.848 82.4816 17.496 82.1936 17.272C81.9056 17.032 81.4736 16.872 80.8976 16.792L79.6016 16.624C78.9456 16.544 78.3456 16.408 77.8016 16.216C77.2576 16.024 76.7856 15.768 76.3856 15.448C76.0016 15.128 75.6976 14.736 75.4736 14.272C75.2656 13.808 75.1616 13.264 75.1616 12.64C75.1616 12 75.2816 11.424 75.5216 10.912C75.7776 10.384 76.1216 9.944 76.5536 9.592C77.0016 9.224 77.5296 8.944 78.1376 8.752C78.7616 8.56 79.4496 8.464 80.2016 8.464C81.4336 8.464 82.4416 8.648 83.2256 9.016C84.0096 9.384 84.7136 9.888 85.3376 10.528L83.5136 12.352C83.1456 11.936 82.6736 11.592 82.0976 11.32C81.5216 11.032 80.8976 10.888 80.2256 10.888C79.5056 10.888 78.9696 11.032 78.6176 11.32C78.2816 11.592 78.1136 11.96 78.1136 12.424C78.1136 12.888 78.2576 13.248 78.5456 13.504C78.8496 13.744 79.3376 13.912 80.0096 14.008L81.3056 14.2C82.6176 14.392 83.6576 14.776 84.4256 15.352C85.1936 15.928 85.5776 16.832 85.5776 18.064C85.5776 18.688 85.4496 19.264 85.1936 19.792C84.9376 20.304 84.5696 20.744 84.0896 21.112C83.6256 21.48 83.0576 21.768 82.3856 21.976C81.7136 22.184 80.9696 22.288 80.1536 22.288ZM93.2551 22.288C92.0071 22.288 90.9431 22.08 90.0631 21.664C89.1991 21.248 88.4391 20.656 87.7831 19.888L89.6791 18.088C90.1431 18.648 90.6871 19.088 91.3111 19.408C91.9351 19.712 92.6391 19.864 93.4231 19.864C94.2391 19.864 94.8231 19.728 95.1751 19.456C95.5431 19.184 95.7271 18.808 95.7271 18.328C95.7271 17.848 95.5831 17.496 95.2951 17.272C95.0071 17.032 94.5751 16.872 93.9991 16.792L92.7031 16.624C92.0471 16.544 91.4471 16.408 90.9031 16.216C90.3591 16.024 89.8871 15.768 89.4871 15.448C89.1031 15.128 88.7991 14.736 88.5751 14.272C88.3671 13.808 88.2631 13.264 88.2631 12.64C88.2631 12 88.3831 11.424 88.6231 10.912C88.8791 10.384 89.2231 9.944 89.6551 9.592C90.1031 9.224 90.6311 8.944 91.2391 8.752C91.8631 8.56 92.5511 8.464 93.3031 8.464C94.5351 8.464 95.5431 8.648 96.3271 9.016C97.1111 9.384 97.8151 9.888 98.4391 10.528L96.6151 12.352C96.2471 11.936 95.7751 11.592 95.1991 11.32C94.6231 11.032 93.9991 10.888 93.3271 10.888C92.6071 10.888 92.0711 11.032 91.7191 11.32C91.3831 11.592 91.2151 11.96 91.2151 12.424C91.2151 12.888 91.3591 13.248 91.6471 13.504C91.9511 13.744 92.4391 13.912 93.1111 14.008L94.4071 14.2C95.7191 14.392 96.7591 14.776 97.5271 15.352C98.2951 15.928 98.6791 16.832 98.6791 18.064C98.6791 18.688 98.5511 19.264 98.2951 19.792C98.0391 20.304 97.6711 20.744 97.1911 21.112C96.7271 21.48 96.1591 21.768 95.4871 21.976C94.8151 22.184 94.0711 22.288 93.2551 22.288ZM107.389 22.288C106.461 22.288 105.629 22.168 104.893 21.928C104.157 21.672 103.533 21.312 103.021 20.848C102.509 20.384 102.117 19.824 101.845 19.168C101.573 18.512 101.437 17.784 101.437 16.984V8.752H104.509V16.792C104.509 17.752 104.757 18.496 105.253 19.024C105.765 19.552 106.477 19.816 107.389 19.816C108.301 19.816 109.005 19.552 109.501 19.024C110.013 18.496 110.269 17.752 110.269 16.792V16.072H108.541C106.941 16.072 106.141 15.384 106.141 14.008V12.544H108.637V13.912H110.269V8.752H113.341V13.912H114.925V16.072H113.341V16.984C113.341 17.784 113.205 18.512 112.933 19.168C112.661 19.824 112.269 20.384 111.757 20.848C111.245 21.312 110.621 21.672 109.885 21.928C109.149 22.168 108.317 22.288 107.389 22.288ZM123.301 13.144C123.301 12.44 123.117 11.896 122.749 11.512C122.397 11.128 121.829 10.936 121.045 10.936C120.325 10.936 119.749 11.088 119.317 11.392C118.901 11.696 118.549 12.072 118.261 12.52L116.437 10.888C116.901 10.152 117.501 9.568 118.237 9.136C118.989 8.688 119.997 8.464 121.261 8.464C122.941 8.464 124.213 8.856 125.077 9.64C125.941 10.408 126.373 11.52 126.373 12.976V22H123.301V13.144Z" fill="url(#paint0_linear_229_3512)"/>
<defs>
<linearGradient id="paint0_linear_229_3512" x1="63.5" y1="-5" x2="63.5" y2="35" gradientUnits="userSpaceOnUse">
<stop stop-color="white"/>
<stop offset="0.8" stop-color="#A2790D"/>
</linearGradient>
</defs>
</svg>
