<svg width="225" height="15" viewBox="0 0 225 15" fill="none" xmlns="http://www.w3.org/2000/svg">
<path d="M0.769297 5.48H2.0493V7.09L3.3793 6.9C3.60596 6.86667 3.77596 6.79667 3.8893 6.69C4.0093 6.58333 4.08263 6.40333 4.1093 6.15L4.1793 5.48H5.4993L5.4293 6.19C5.39596 6.49667 5.27596 6.75333 5.0693 6.96C4.86263 7.16667 4.57596 7.29 4.2093 7.33V7.38C4.43596 7.42 4.62263 7.50333 4.7693 7.63C4.91596 7.75 5.03263 7.89 5.1193 8.05C5.21263 8.21 5.2793 8.38333 5.3193 8.57C5.36596 8.75667 5.3993 8.93333 5.4193 9.1L5.5993 11H4.2693L4.0993 9.02C4.06596 8.64 3.97596 8.36 3.8293 8.18C3.6893 8 3.43596 7.93333 3.0693 7.98L2.0493 8.11V11H0.769297V5.48ZM9.82211 11.12C9.58878 11.12 9.38211 11.09 9.20211 11.03C9.02878 10.9767 8.87544 10.9033 8.74211 10.81C8.61544 10.71 8.50878 10.5967 8.42211 10.47C8.34211 10.3433 8.27878 10.2133 8.23211 10.08H8.18211V11H6.90211V5.48H8.18211V9.14C8.18211 9.29333 8.21544 9.43 8.28211 9.55C8.34878 9.66333 8.43544 9.76 8.54211 9.84C8.64878 9.91333 8.76878 9.97 8.90211 10.01C9.03544 10.05 9.16878 10.07 9.30211 10.07C9.50211 10.07 9.66878 10.04 9.80211 9.98C9.93544 9.91333 10.0421 9.82667 10.1221 9.72C10.2088 9.60667 10.2688 9.47667 10.3021 9.33C10.3354 9.17667 10.3521 9.01333 10.3521 8.84V5.48H11.6321V8.96C11.6321 9.65333 11.4754 10.1867 11.1621 10.56C10.8554 10.9333 10.4088 11.12 9.82211 11.12ZM10.5509 12.93H9.86086V12.07H10.8109C11.1042 12.07 11.3142 12.1333 11.4409 12.26C11.5675 12.3933 11.6309 12.57 11.6309 12.79V14.48H10.5509V12.93ZM14.7745 11.12C14.2011 11.12 13.7611 10.9333 13.4545 10.56C13.1478 10.1867 12.9945 9.65333 12.9945 8.96V5.48H14.2745V8.84C14.2745 9.22 14.3478 9.52 14.4945 9.74C14.6478 9.96 14.9111 10.07 15.2845 10.07C15.4245 10.07 15.5611 10.05 15.6945 10.01C15.8278 9.97 15.9445 9.91333 16.0445 9.84C16.1511 9.76 16.2378 9.66333 16.3045 9.55C16.3711 9.43 16.4045 9.29333 16.4045 9.14V5.48H17.6845V9.98H18.2145V11H17.4145C16.8411 11 16.5445 10.6733 16.5245 10.02H16.4645C16.3511 10.3267 16.1578 10.5867 15.8845 10.8C15.6178 11.0133 15.2478 11.12 14.7745 11.12ZM20.8547 11.1C20.3147 11.1 19.8847 10.97 19.5647 10.71C19.2447 10.4433 19.0847 10.0333 19.0847 9.48C19.0847 8.96 19.238 8.56 19.5447 8.28C19.8514 8 20.288 7.86 20.8547 7.86H22.5347V7.5C22.5347 7.14 22.438 6.86667 22.2447 6.68C22.0514 6.48667 21.7447 6.39 21.3247 6.39C20.9314 6.39 20.6147 6.47667 20.3747 6.65C20.1347 6.81667 19.938 7.01333 19.7847 7.24L18.9747 6.53C19.088 6.35667 19.218 6.2 19.3647 6.06C19.518 5.91333 19.6914 5.79 19.8847 5.69C20.0847 5.58333 20.308 5.50333 20.5547 5.45C20.808 5.39 21.0914 5.36 21.4047 5.36C22.0514 5.36 22.5814 5.49 22.9947 5.75C23.028 5.55667 23.108 5.42 23.2347 5.34C23.368 5.25333 23.538 5.21 23.7447 5.21H24.9147V6.27H23.5147V6.31C23.7147 6.61 23.8147 6.99 23.8147 7.45V11H22.5347V8.69H21.2847C20.6914 8.69 20.3947 8.92667 20.3947 9.4V9.59C20.3947 9.82333 20.4614 10.0067 20.5947 10.14C20.728 10.2733 20.9114 10.34 21.1447 10.34C21.2514 10.34 21.3447 10.33 21.4247 10.31L21.5147 11.03C21.4614 11.05 21.3647 11.0667 21.2247 11.08C21.0847 11.0933 20.9614 11.1 20.8547 11.1ZM27.173 11.1C26.633 11.1 26.203 10.97 25.883 10.71C25.563 10.4433 25.403 10.0333 25.403 9.48C25.403 8.96 25.5564 8.56 25.863 8.28C26.1697 8 26.6064 7.86 27.173 7.86H28.853V7.5C28.853 7.14 28.7564 6.86667 28.563 6.68C28.3697 6.48667 28.063 6.39 27.643 6.39C27.2497 6.39 26.933 6.47667 26.693 6.65C26.453 6.81667 26.2564 7.01333 26.103 7.24L25.293 6.53C25.4064 6.35667 25.5364 6.2 25.683 6.06C25.8364 5.91333 26.0097 5.79 26.203 5.69C26.403 5.58333 26.6264 5.50333 26.873 5.45C27.1264 5.39 27.4097 5.36 27.723 5.36C28.5164 5.36 29.1164 5.54 29.523 5.9C29.9297 6.26 30.133 6.77667 30.133 7.45V11H28.853V8.69H27.603C27.0097 8.69 26.713 8.92667 26.713 9.4V9.59C26.713 9.82333 26.7797 10.0067 26.913 10.14C27.0464 10.2733 27.2297 10.34 27.463 10.34C27.5697 10.34 27.663 10.33 27.743 10.31L27.833 11.03C27.7797 11.05 27.683 11.0667 27.543 11.08C27.403 11.0933 27.2797 11.1 27.173 11.1ZM27.0467 4.68C26.7134 4.68 26.4467 4.57333 26.2467 4.36C26.0401 4.14 25.9367 3.84 25.9367 3.46C25.9367 3.06 26.0601 2.73667 26.3067 2.49C26.5467 2.24333 26.8867 2.12 27.3267 2.12H30.1367V2.91H27.3367C27.1901 2.91 27.0801 2.96 27.0067 3.06C26.9267 3.15333 26.8867 3.27667 26.8867 3.43C26.8867 3.58333 26.9201 3.70333 26.9867 3.79C27.0534 3.87 27.1501 3.91 27.2767 3.91C27.3567 3.91 27.4234 3.89333 27.4767 3.86C27.5234 3.82 27.5634 3.77333 27.5967 3.72C27.6234 3.66667 27.6434 3.60667 27.6567 3.54C27.6701 3.47333 27.6767 3.41333 27.6767 3.36H28.3967C28.3967 3.41333 28.4034 3.47333 28.4167 3.54C28.4301 3.60667 28.4534 3.66667 28.4867 3.72C28.5134 3.77333 28.5534 3.82 28.6067 3.86C28.6534 3.89333 28.7167 3.91 28.7967 3.91C28.9234 3.91 29.0201 3.87 29.0867 3.79C29.1534 3.70333 29.1867 3.58333 29.1867 3.43V3.21H30.1367V3.55C30.1367 3.91 30.0367 4.19 29.8367 4.39C29.6367 4.58333 29.3667 4.68 29.0267 4.68C28.8067 4.68 28.6101 4.63 28.4367 4.53C28.2567 4.43 28.1301 4.26 28.0567 4.02H28.0167C27.9434 4.26 27.8201 4.43 27.6467 4.53C27.4667 4.63 27.2667 4.68 27.0467 4.68ZM33.7305 11.12C33.3839 11.12 33.0639 11.0733 32.7705 10.98C32.4772 10.88 32.2239 10.7467 32.0105 10.58C31.7972 10.4067 31.6305 10.2033 31.5105 9.97C31.3905 9.73 31.3305 9.46667 31.3305 9.18V8.68C31.3305 8.42667 31.3939 8.23 31.5205 8.09C31.6539 7.94333 31.8639 7.87 32.1505 7.87H33.3105V8.84H32.5005V9.08C32.5005 9.42667 32.6139 9.69 32.8405 9.87C33.0672 10.0433 33.3805 10.13 33.7805 10.13C34.1672 10.13 34.4672 10.0033 34.6805 9.75C34.8939 9.49667 35.0005 9.14667 35.0005 8.7V7.81C35.0005 7.36333 34.8805 7.01667 34.6405 6.77C34.4005 6.51667 34.0639 6.39 33.6305 6.39C33.2439 6.39 32.9105 6.47333 32.6305 6.64C32.3572 6.80667 32.1539 6.99 32.0205 7.19L31.2405 6.49C31.4339 6.17 31.7339 5.90333 32.1405 5.69C32.5539 5.47 33.0672 5.36 33.6805 5.36C34.1005 5.36 34.4739 5.42667 34.8005 5.56C35.1272 5.68667 35.4039 5.87667 35.6305 6.13C35.8639 6.37667 36.0405 6.68 36.1605 7.04C36.2805 7.39333 36.3405 7.79333 36.3405 8.24C36.3405 9.14 36.1139 9.84667 35.6605 10.36C35.2072 10.8667 34.5639 11.12 33.7305 11.12ZM39.7769 11.12C38.9702 11.12 38.3502 10.8767 37.9169 10.39C37.4835 9.89667 37.2669 9.17333 37.2669 8.22C37.2669 7.29333 37.4102 6.58667 37.6969 6.1C37.9835 5.60667 38.4169 5.36 38.9969 5.36C39.3035 5.36 39.5602 5.44333 39.7669 5.61C39.9735 5.77 40.1035 6 40.1569 6.3H40.2169C40.2702 6 40.4102 5.77 40.6369 5.61C40.8635 5.44333 41.1435 5.36 41.4769 5.36C41.8902 5.36 42.2169 5.5 42.4569 5.78C42.7035 6.05333 42.8269 6.43333 42.8269 6.92V11H41.5469V7.07C41.5469 6.85667 41.5035 6.69667 41.4169 6.59C41.3369 6.48333 41.2235 6.43 41.0769 6.43C40.8969 6.43 40.7669 6.5 40.6869 6.64C40.6135 6.78 40.5602 6.95667 40.5269 7.17H39.7569C39.7302 6.96333 39.6835 6.79 39.6169 6.65C39.5502 6.50333 39.4202 6.43 39.2269 6.43C39.0002 6.43 38.8402 6.54 38.7469 6.76C38.6602 6.98 38.6169 7.28667 38.6169 7.68V8.69C38.6169 8.90333 38.6402 9.09667 38.6869 9.27C38.7335 9.43667 38.8102 9.58333 38.9169 9.71C39.0235 9.83 39.1635 9.92333 39.3369 9.99C39.5102 10.0567 39.7235 10.09 39.9769 10.09C40.1035 10.09 40.2302 10.0767 40.3569 10.05L40.5069 11.05C40.4135 11.0767 40.2969 11.0933 40.1569 11.1C40.0169 11.1133 39.8902 11.12 39.7769 11.12ZM45.7259 11C45.2859 11 44.9592 10.89 44.7459 10.67C44.5392 10.45 44.4359 10.14 44.4359 9.74V5.88C44.4359 5.72 44.4592 5.57667 44.5059 5.45C44.5592 5.31667 44.6225 5.19667 44.6959 5.09C44.7692 4.98333 44.8525 4.88667 44.9459 4.8C45.0392 4.70667 45.1292 4.61667 45.2159 4.53C45.3425 4.40333 45.4525 4.27333 45.5459 4.14C45.6459 4.00667 45.6959 3.84667 45.6959 3.66C45.6959 3.43333 45.6325 3.26333 45.5059 3.15C45.3792 3.03667 45.2092 2.98 44.9959 2.98C44.7492 2.98 44.5492 3.05333 44.3959 3.2C44.2492 3.34 44.1359 3.54667 44.0559 3.82L43.1159 3.29C43.1825 3.11 43.2725 2.94 43.3859 2.78C43.4925 2.61333 43.6259 2.47 43.7859 2.35C43.9459 2.23 44.1359 2.13667 44.3559 2.07C44.5759 1.99667 44.8325 1.96 45.1259 1.96C45.3925 1.96 45.6359 1.99667 45.8559 2.07C46.0759 2.14333 46.2625 2.24667 46.4159 2.38C46.5759 2.51333 46.6992 2.67667 46.7859 2.87C46.8725 3.06333 46.9159 3.28 46.9159 3.52C46.9159 3.8 46.8492 4.04333 46.7159 4.25C46.5892 4.45 46.4492 4.63667 46.2959 4.81C46.1425 4.97667 46.0059 5.14 45.8859 5.3C45.7725 5.46 45.7159 5.64 45.7159 5.84V9.98H46.4459V11H45.7259ZM47.4783 5.48H48.7583V7.09L50.0883 6.9C50.3149 6.86667 50.4849 6.79667 50.5983 6.69C50.7183 6.58333 50.7916 6.40333 50.8183 6.15L50.8883 5.48H52.2083L52.1383 6.19C52.1049 6.49667 51.9849 6.75333 51.7783 6.96C51.5716 7.16667 51.2849 7.29 50.9183 7.33V7.38C51.1449 7.42 51.3316 7.50333 51.4783 7.63C51.6249 7.75 51.7416 7.89 51.8283 8.05C51.9216 8.21 51.9883 8.38333 52.0283 8.57C52.0749 8.75667 52.1083 8.93333 52.1283 9.1L52.3083 11H50.9783L50.8083 9.02C50.7749 8.64 50.6849 8.36 50.5383 8.18C50.3983 8 50.1449 7.93333 49.7783 7.98L48.7583 8.11V11H47.4783V5.48ZM50.2473 3.6H50.9173V3.25C50.9173 3.12333 50.8873 3.03333 50.8273 2.98C50.7673 2.92 50.6573 2.89 50.4973 2.89H50.2473V1.99H50.9973C51.3173 1.99 51.5639 2.06333 51.7373 2.21C51.9106 2.35 51.9973 2.53667 51.9973 2.77C51.9973 2.92333 51.9539 3.07333 51.8673 3.22C51.7739 3.36 51.6439 3.46667 51.4773 3.54V3.6H53.3073V4.5H50.2473V3.6ZM56.0872 11C55.6472 11 55.3205 10.89 55.1072 10.67C54.9005 10.45 54.7972 10.14 54.7972 9.74V4.45C54.7972 4.25 54.8239 4.07667 54.8772 3.93C54.9305 3.77667 55.0005 3.64667 55.0872 3.54C55.1739 3.43333 55.2739 3.34667 55.3872 3.28C55.5072 3.21333 55.6305 3.16 55.7572 3.12V3.07H53.5972V2.07H57.0872V3.07H56.9572C56.6772 3.07 56.4605 3.15667 56.3072 3.33C56.1539 3.49667 56.0772 3.73 56.0772 4.03V9.98H56.8072V11H56.0872ZM59.9896 11.12C59.6096 11.12 59.2663 11.0533 58.9596 10.92C58.6596 10.7867 58.4063 10.5967 58.1996 10.35C57.9929 10.1033 57.8329 9.80333 57.7196 9.45C57.6129 9.09 57.5596 8.68667 57.5596 8.24C57.5596 7.8 57.6196 7.40333 57.7396 7.05C57.8663 6.69667 58.0429 6.39667 58.2696 6.15C58.5029 5.89667 58.7829 5.70333 59.1096 5.57C59.4429 5.43 59.8129 5.36 60.2196 5.36C60.6063 5.36 60.9563 5.41667 61.2696 5.53C61.5829 5.63667 61.8496 5.79333 62.0696 6C62.2896 6.2 62.4596 6.44667 62.5796 6.74C62.6996 7.02667 62.7596 7.35 62.7596 7.71V11H61.4796V7.79C61.4796 7.35 61.3663 7.00667 61.1396 6.76C60.9196 6.51333 60.6096 6.39 60.2096 6.39C59.7963 6.39 59.4729 6.52333 59.2396 6.79C59.0129 7.05 58.8996 7.41 58.8996 7.87V8.6C58.8996 9.59333 59.3163 10.09 60.1496 10.09C60.2229 10.09 60.2863 10.09 60.3396 10.09C60.3996 10.0833 60.4596 10.0733 60.5196 10.06L60.6696 11.06C60.5629 11.0867 60.4429 11.1033 60.3096 11.11C60.1829 11.1167 60.0763 11.12 59.9896 11.12ZM60.8137 3.6H61.4837V3.25C61.4837 3.12333 61.4537 3.03333 61.3937 2.98C61.3337 2.92 61.2237 2.89 61.0637 2.89H60.8137V1.99H61.5637C61.8837 1.99 62.1303 2.06333 62.3037 2.21C62.477 2.35 62.5637 2.53667 62.5637 2.77C62.5637 2.92333 62.5203 3.07333 62.4337 3.22C62.3403 3.36 62.2103 3.46667 62.0437 3.54V3.6H63.8737V4.5H60.8137V3.6ZM65.9475 11C65.5075 11 65.1808 10.89 64.9675 10.67C64.7608 10.45 64.6575 10.14 64.6575 9.74V8.03L63.7975 7.68C63.8242 7.33333 63.9075 7.01667 64.0475 6.73C64.1875 6.44333 64.3742 6.2 64.6075 6C64.8475 5.79333 65.1275 5.63667 65.4475 5.53C65.7742 5.41667 66.1275 5.36 66.5075 5.36C66.9075 5.36 67.2642 5.41333 67.5775 5.52C67.8975 5.62667 68.1675 5.78 68.3875 5.98C68.6075 6.18 68.7742 6.42333 68.8875 6.71C69.0075 6.99 69.0675 7.30333 69.0675 7.65V11H67.7875V7.82C67.7875 7.36 67.6708 7.00667 67.4375 6.76C67.2042 6.51333 66.8675 6.39 66.4275 6.39C66.0808 6.39 65.7775 6.46667 65.5175 6.62C65.2642 6.76667 65.0875 6.96 64.9875 7.2L65.3775 7.35C65.5908 7.43 65.7375 7.52333 65.8175 7.63C65.8975 7.73667 65.9375 7.89667 65.9375 8.11V9.98H66.4675V11H65.9475ZM68.002 12.93H67.312V12.07H68.262C68.5554 12.07 68.7654 12.1333 68.892 12.26C69.0187 12.3933 69.082 12.57 69.082 12.79V14.48H68.002V12.93ZM69.9261 7.04H71.1961L72.4761 9.98H72.5161C72.8028 9.98 73.0261 9.86667 73.1861 9.64C73.3461 9.41333 73.4261 9.09667 73.4261 8.69V7.8C73.4261 7.39333 73.3461 7.07667 73.1861 6.85C73.0261 6.62333 72.8028 6.51 72.5161 6.51H72.1261V5.48H72.5261C73.2328 5.48 73.7828 5.72333 74.1761 6.21C74.5694 6.69 74.7661 7.36667 74.7661 8.24C74.7661 9.11333 74.5694 9.79333 74.1761 10.28C73.7828 10.76 73.2328 11 72.5261 11H71.6561L69.9261 7.04ZM77.4346 11C76.9946 11 76.6713 10.89 76.4646 10.67C76.2579 10.45 76.1546 10.14 76.1546 9.74V5.48H77.4346V9.98H78.1646V11H77.4346ZM78.4613 7.04H79.7313L81.0113 9.98H81.0513C81.3379 9.98 81.5613 9.86667 81.7213 9.64C81.8813 9.41333 81.9613 9.09667 81.9613 8.69V7.8C81.9613 7.39333 81.8813 7.07667 81.7213 6.85C81.5613 6.62333 81.3379 6.51 81.0513 6.51H80.6613V5.48H81.0613C81.7679 5.48 82.3179 5.72333 82.7113 6.21C83.1046 6.69 83.3013 7.36667 83.3013 8.24C83.3013 9.11333 83.1046 9.79333 82.7113 10.28C82.3179 10.76 81.7679 11 81.0613 11H80.1913L78.4613 7.04ZM78.7431 3.6H83.2031V4.57H78.7431V3.6ZM86.2198 11.12C85.6464 11.12 85.2064 10.9333 84.8998 10.56C84.5931 10.1867 84.4398 9.65333 84.4398 8.96V5.48H85.7198V8.84C85.7198 9.22 85.7931 9.52 85.9398 9.74C86.0931 9.96 86.3564 10.07 86.7298 10.07C86.8698 10.07 87.0064 10.05 87.1398 10.01C87.2731 9.97 87.3898 9.91333 87.4898 9.84C87.5964 9.76 87.6831 9.66333 87.7498 9.55C87.8164 9.43 87.8498 9.29333 87.8498 9.14V5.48H89.1298V9.98H89.6598V11H88.8598C88.2864 11 87.9898 10.6733 87.9698 10.02H87.9098C87.7964 10.3267 87.6031 10.5867 87.3298 10.8C87.0631 11.0133 86.6931 11.12 86.2198 11.12ZM92.21 11C91.77 11 91.4467 10.89 91.24 10.67C91.0333 10.45 90.93 10.14 90.93 9.74V5.48H92.21V9.98H92.94V11H92.21ZM93.7924 5.48H94.9824L95.2824 8.28L95.3624 9.52H95.4324L95.7224 8.28L96.4724 5.48H97.3724L98.1224 8.28L98.4124 9.52H98.4824L98.5624 8.28L98.8624 5.48H100.052L99.2924 11H97.9124L97.1424 7.81L96.9224 6.81H96.8924L96.6724 7.81L95.9024 11H94.5524L93.7924 5.48ZM95.5986 3.6H97.2886V2.77H98.2886V3.71H99.0586V2.77H100.059V4.57H95.5986V3.6ZM98.9686 0.71H100.059V2.28H98.9686V0.71ZM103.438 11.12C103.091 11.12 102.771 11.0733 102.478 10.98C102.184 10.88 101.931 10.7467 101.718 10.58C101.504 10.4067 101.338 10.2033 101.218 9.97C101.098 9.73 101.038 9.46667 101.038 9.18V8.68C101.038 8.42667 101.101 8.23 101.228 8.09C101.361 7.94333 101.571 7.87 101.858 7.87H103.018V8.84H102.208V9.08C102.208 9.42667 102.321 9.69 102.548 9.87C102.774 10.0433 103.088 10.13 103.488 10.13C103.874 10.13 104.174 10.0033 104.388 9.75C104.601 9.49667 104.708 9.14667 104.708 8.7V7.81C104.708 7.36333 104.588 7.01667 104.348 6.77C104.108 6.51667 103.771 6.39 103.338 6.39C102.951 6.39 102.618 6.47333 102.338 6.64C102.064 6.80667 101.861 6.99 101.728 7.19L100.948 6.49C101.141 6.17 101.441 5.90333 101.848 5.69C102.261 5.47 102.774 5.36 103.388 5.36C103.808 5.36 104.181 5.42667 104.508 5.56C104.834 5.68667 105.111 5.87667 105.338 6.13C105.571 6.37667 105.748 6.68 105.868 7.04C105.988 7.39333 106.048 7.79333 106.048 8.24C106.048 9.14 105.821 9.84667 105.368 10.36C104.914 10.8667 104.271 11.12 103.438 11.12ZM109.234 11.12C108.714 11.12 108.271 11.0333 107.904 10.86C107.544 10.6867 107.227 10.44 106.954 10.12L107.744 9.37C107.937 9.60333 108.164 9.78667 108.424 9.92C108.684 10.0467 108.977 10.11 109.304 10.11C109.644 10.11 109.887 10.0533 110.034 9.94C110.187 9.82667 110.264 9.67 110.264 9.47C110.264 9.27 110.204 9.12333 110.084 9.03C109.964 8.93 109.784 8.86333 109.544 8.83L109.004 8.76C108.731 8.72667 108.481 8.67 108.254 8.59C108.027 8.51 107.831 8.40333 107.664 8.27C107.504 8.13667 107.377 7.97333 107.284 7.78C107.197 7.58667 107.154 7.36 107.154 7.1C107.154 6.83333 107.204 6.59333 107.304 6.38C107.411 6.16 107.554 5.97667 107.734 5.83C107.921 5.67667 108.141 5.56 108.394 5.48C108.654 5.4 108.941 5.36 109.254 5.36C109.767 5.36 110.187 5.43667 110.514 5.59C110.841 5.74333 111.134 5.95333 111.394 6.22L110.634 6.98C110.481 6.80667 110.284 6.66333 110.044 6.55C109.804 6.43 109.544 6.37 109.264 6.37C108.964 6.37 108.741 6.43 108.594 6.55C108.454 6.66333 108.384 6.81667 108.384 7.01C108.384 7.20333 108.444 7.35333 108.564 7.46C108.691 7.56 108.894 7.63 109.174 7.67L109.714 7.75C110.261 7.83 110.694 7.99 111.014 8.23C111.334 8.47 111.494 8.84667 111.494 9.36C111.494 9.62 111.441 9.86 111.334 10.08C111.227 10.2933 111.074 10.4767 110.874 10.63C110.681 10.7833 110.444 10.9033 110.164 10.99C109.884 11.0767 109.574 11.12 109.234 11.12ZM110.245 4.57C109.865 4.57 109.578 4.48 109.385 4.3C109.192 4.12 109.095 3.86333 109.095 3.53V2.77H110.155V3.6H112.795V4.57H110.245ZM115.063 11.12C114.69 11.12 114.353 11.07 114.053 10.97C113.753 10.8633 113.496 10.7133 113.283 10.52C113.076 10.3267 112.916 10.0933 112.803 9.82C112.696 9.54667 112.643 9.24 112.643 8.9V5.48H113.923V8.83C113.923 9.23 114.023 9.54 114.223 9.76C114.423 9.98 114.703 10.09 115.063 10.09C115.423 10.09 115.703 9.98 115.903 9.76C116.103 9.54 116.203 9.23 116.203 8.83V5.48H117.483V8.9C117.483 9.24 117.426 9.54667 117.313 9.82C117.206 10.0933 117.046 10.3267 116.833 10.52C116.626 10.7133 116.373 10.8633 116.073 10.97C115.773 11.07 115.436 11.12 115.063 11.12ZM120.374 11C119.934 11 119.611 10.89 119.404 10.67C119.197 10.45 119.094 10.14 119.094 9.74V5.48H120.374V9.98H121.104V11H120.374ZM122.136 5.48H123.416V7.09L124.746 6.9C124.973 6.86667 125.143 6.79667 125.256 6.69C125.376 6.58333 125.45 6.40333 125.476 6.15L125.546 5.48H126.866L126.796 6.19C126.763 6.49667 126.643 6.75333 126.436 6.96C126.23 7.16667 125.943 7.29 125.576 7.33V7.38C125.803 7.42 125.99 7.50333 126.136 7.63C126.283 7.75 126.4 7.89 126.486 8.05C126.58 8.21 126.646 8.38333 126.686 8.57C126.733 8.75667 126.766 8.93333 126.786 9.1L126.966 11H125.636L125.466 9.02C125.433 8.64 125.343 8.36 125.196 8.18C125.056 8 124.803 7.93333 124.436 7.98L123.416 8.11V11H122.136V5.48ZM130.259 11.12C129.739 11.12 129.296 11.0333 128.929 10.86C128.569 10.6867 128.253 10.44 127.979 10.12L128.769 9.37C128.963 9.60333 129.189 9.78667 129.449 9.92C129.709 10.0467 130.003 10.11 130.329 10.11C130.669 10.11 130.913 10.0533 131.059 9.94C131.213 9.82667 131.289 9.67 131.289 9.47C131.289 9.27 131.229 9.12333 131.109 9.03C130.989 8.93 130.809 8.86333 130.569 8.83L130.029 8.76C129.756 8.72667 129.506 8.67 129.279 8.59C129.053 8.51 128.856 8.40333 128.689 8.27C128.529 8.13667 128.403 7.97333 128.309 7.78C128.223 7.58667 128.179 7.36 128.179 7.1C128.179 6.83333 128.229 6.59333 128.329 6.38C128.436 6.16 128.579 5.97667 128.759 5.83C128.946 5.67667 129.166 5.56 129.419 5.48C129.679 5.4 129.966 5.36 130.279 5.36C130.793 5.36 131.213 5.43667 131.539 5.59C131.866 5.74333 132.159 5.95333 132.419 6.22L131.659 6.98C131.506 6.80667 131.309 6.66333 131.069 6.55C130.829 6.43 130.569 6.37 130.289 6.37C129.989 6.37 129.766 6.43 129.619 6.55C129.479 6.66333 129.409 6.81667 129.409 7.01C129.409 7.20333 129.469 7.35333 129.589 7.46C129.716 7.56 129.919 7.63 130.199 7.67L130.739 7.75C131.286 7.83 131.719 7.99 132.039 8.23C132.359 8.47 132.519 8.84667 132.519 9.36C132.519 9.62 132.466 9.86 132.359 10.08C132.253 10.2933 132.099 10.4767 131.899 10.63C131.706 10.7833 131.469 10.9033 131.189 10.99C130.909 11.0767 130.599 11.12 130.259 11.12ZM128.03 3.6H131.32V2.77H132.49V4.57H128.03V3.6ZM135.778 11.12C135.072 11.12 134.518 10.98 134.118 10.7C133.718 10.4133 133.518 10.01 133.518 9.49C133.518 9.17 133.612 8.89667 133.798 8.67C133.992 8.44333 134.238 8.28667 134.538 8.2V8.14C134.205 8.06 133.945 7.90333 133.758 7.67C133.572 7.43 133.478 7.14 133.478 6.8C133.478 6.58667 133.515 6.39333 133.588 6.22C133.668 6.04 133.775 5.88667 133.908 5.76C134.048 5.63333 134.215 5.53667 134.408 5.47C134.608 5.39667 134.828 5.36 135.068 5.36C135.222 5.36 135.388 5.37667 135.568 5.41C135.748 5.43667 135.912 5.49 136.058 5.57L135.788 6.5C135.702 6.45333 135.618 6.42333 135.538 6.41C135.465 6.39 135.385 6.38 135.298 6.38C135.105 6.38 134.945 6.43667 134.818 6.55C134.692 6.65667 134.628 6.80667 134.628 7C134.628 7.19333 134.685 7.35 134.798 7.47C134.912 7.59 135.118 7.65 135.418 7.65H135.958V8.51H135.418C135.245 8.51 135.098 8.56667 134.978 8.68C134.858 8.79333 134.798 8.94667 134.798 9.14V9.34C134.798 9.59333 134.885 9.78333 135.058 9.91C135.238 10.03 135.492 10.09 135.818 10.09C136.198 10.09 136.495 9.99 136.708 9.79C136.928 9.58333 137.038 9.28667 137.038 8.9V5.48H138.318V9.07C138.318 9.38333 138.258 9.66667 138.138 9.92C138.018 10.1733 137.848 10.39 137.628 10.57C137.408 10.7433 137.142 10.88 136.828 10.98C136.515 11.0733 136.165 11.12 135.778 11.12ZM145.334 11.12C144.621 11.12 144.074 10.94 143.694 10.58C143.321 10.22 143.134 9.71667 143.134 9.07V7.82C143.134 7.36 143.031 7.00667 142.824 6.76C142.624 6.51333 142.307 6.39 141.874 6.39C141.547 6.39 141.264 6.46667 141.024 6.62C140.791 6.76667 140.627 6.95667 140.534 7.19L140.934 7.35C141.147 7.43667 141.294 7.53333 141.374 7.64C141.454 7.74 141.494 7.89667 141.494 8.11V9.98H142.024V11H141.504C141.064 11 140.737 10.89 140.524 10.67C140.317 10.45 140.214 10.14 140.214 9.74V8.03L139.354 7.68C139.381 7.33333 139.461 7.01667 139.594 6.73C139.727 6.44333 139.904 6.2 140.124 6C140.351 5.79333 140.614 5.63667 140.914 5.53C141.214 5.41667 141.541 5.36 141.894 5.36C142.301 5.36 142.661 5.41667 142.974 5.53C143.294 5.64333 143.557 5.80333 143.764 6.01C143.977 6.21 144.137 6.45333 144.244 6.74C144.357 7.02 144.414 7.32667 144.414 7.66V9.02C144.414 9.35333 144.487 9.61667 144.634 9.81C144.787 9.99667 145.021 10.09 145.334 10.09C145.647 10.09 145.877 9.99333 146.024 9.8C146.171 9.60667 146.244 9.34667 146.244 9.02V5.48H147.524V9.07C147.524 9.71667 147.334 10.22 146.954 10.58C146.581 10.94 146.041 11.12 145.334 11.12ZM144.284 13.45C143.904 13.45 143.617 13.36 143.424 13.18C143.231 13 143.134 12.7433 143.134 12.41V11.65H144.194V12.48H147.524V13.45H144.284ZM150.933 11.12C150.413 11.12 149.97 11.0333 149.603 10.86C149.243 10.6867 148.926 10.44 148.653 10.12L149.443 9.37C149.636 9.60333 149.863 9.78667 150.123 9.92C150.383 10.0467 150.676 10.11 151.003 10.11C151.343 10.11 151.586 10.0533 151.733 9.94C151.886 9.82667 151.963 9.67 151.963 9.47C151.963 9.27 151.903 9.12333 151.783 9.03C151.663 8.93 151.483 8.86333 151.243 8.83L150.703 8.76C150.43 8.72667 150.18 8.67 149.953 8.59C149.726 8.51 149.53 8.40333 149.363 8.27C149.203 8.13667 149.076 7.97333 148.983 7.78C148.896 7.58667 148.853 7.36 148.853 7.1C148.853 6.83333 148.903 6.59333 149.003 6.38C149.11 6.16 149.253 5.97667 149.433 5.83C149.62 5.67667 149.84 5.56 150.093 5.48C150.353 5.4 150.64 5.36 150.953 5.36C151.466 5.36 151.886 5.43667 152.213 5.59C152.54 5.74333 152.833 5.95333 153.093 6.22L152.333 6.98C152.18 6.80667 151.983 6.66333 151.743 6.55C151.503 6.43 151.243 6.37 150.963 6.37C150.663 6.37 150.44 6.43 150.293 6.55C150.153 6.66333 150.083 6.81667 150.083 7.01C150.083 7.20333 150.143 7.35333 150.263 7.46C150.39 7.56 150.593 7.63 150.873 7.67L151.413 7.75C151.96 7.83 152.393 7.99 152.713 8.23C153.033 8.47 153.193 8.84667 153.193 9.36C153.193 9.62 153.14 9.86 153.033 10.08C152.926 10.2933 152.773 10.4767 152.573 10.63C152.38 10.7833 152.143 10.9033 151.863 10.99C151.583 11.0767 151.273 11.12 150.933 11.12ZM156.782 7.31C156.782 7.01667 156.705 6.79 156.552 6.63C156.405 6.47 156.169 6.39 155.842 6.39C155.542 6.39 155.302 6.45333 155.122 6.58C154.949 6.70667 154.802 6.86333 154.682 7.05L153.922 6.37C154.115 6.06333 154.365 5.82 154.672 5.64C154.985 5.45333 155.405 5.36 155.932 5.36C156.632 5.36 157.162 5.52333 157.522 5.85C157.882 6.17 158.062 6.63333 158.062 7.24V11H156.782V7.31ZM158.92 7.04H160.19L161.47 9.98H161.51C161.797 9.98 162.02 9.86667 162.18 9.64C162.34 9.41333 162.42 9.09667 162.42 8.69V7.8C162.42 7.39333 162.34 7.07667 162.18 6.85C162.02 6.62333 161.797 6.51 161.51 6.51H161.12V5.48H161.52C162.227 5.48 162.777 5.72333 163.17 6.21C163.564 6.69 163.76 7.36667 163.76 8.24C163.76 9.11333 163.564 9.79333 163.17 10.28C162.777 10.76 162.227 11 161.52 11H160.65L158.92 7.04ZM166.669 11.12C166.375 11.12 166.095 11.0833 165.829 11.01C165.569 10.9433 165.339 10.84 165.139 10.7L165.609 9.79C165.735 9.86333 165.879 9.93333 166.039 10C166.199 10.06 166.389 10.09 166.609 10.09C166.969 10.09 167.242 9.97 167.429 9.73C167.622 9.48333 167.719 9.15 167.719 8.73V7.76C167.719 7.34 167.625 7.00667 167.439 6.76C167.252 6.51333 166.975 6.39 166.609 6.39C166.302 6.39 166.055 6.46667 165.869 6.62C165.682 6.77333 165.552 6.96667 165.479 7.2L164.439 6.74C164.605 6.31333 164.875 5.97667 165.249 5.73C165.629 5.48333 166.102 5.36 166.669 5.36C167.055 5.36 167.395 5.42667 167.689 5.56C167.989 5.69333 168.239 5.88667 168.439 6.14C168.645 6.38667 168.799 6.68667 168.899 7.04C169.005 7.39333 169.059 7.79 169.059 8.23C169.059 8.67667 169.005 9.08 168.899 9.44C168.799 9.79333 168.645 10.0967 168.439 10.35C168.239 10.5967 167.989 10.7867 167.689 10.92C167.395 11.0533 167.055 11.12 166.669 11.12ZM167.637 4.57C167.257 4.57 166.971 4.48 166.777 4.3C166.584 4.12 166.487 3.86333 166.487 3.53V2.77H167.547V3.6H170.187V4.57H167.637ZM171.821 11.1C171.281 11.1 170.851 10.97 170.531 10.71C170.211 10.4433 170.051 10.0333 170.051 9.48C170.051 8.96 170.205 8.56 170.511 8.28C170.818 8 171.255 7.86 171.821 7.86H173.501V7.5C173.501 7.14 173.405 6.86667 173.211 6.68C173.018 6.48667 172.711 6.39 172.291 6.39C171.898 6.39 171.581 6.47667 171.341 6.65C171.101 6.81667 170.905 7.01333 170.751 7.24L169.941 6.53C170.055 6.35667 170.185 6.2 170.331 6.06C170.485 5.91333 170.658 5.79 170.851 5.69C171.051 5.58333 171.275 5.50333 171.521 5.45C171.775 5.39 172.058 5.36 172.371 5.36C173.165 5.36 173.765 5.54 174.171 5.9C174.578 6.26 174.781 6.77667 174.781 7.45V11H173.501V8.69H172.251C171.658 8.69 171.361 8.92667 171.361 9.4V9.59C171.361 9.82333 171.428 10.0067 171.561 10.14C171.695 10.2733 171.878 10.34 172.111 10.34C172.218 10.34 172.311 10.33 172.391 10.31L172.481 11.03C172.428 11.05 172.331 11.0667 172.191 11.08C172.051 11.0933 171.928 11.1 171.821 11.1ZM180.652 11.12C180.312 11.12 180.002 11.08 179.722 11C179.442 10.92 179.202 10.8 179.002 10.64C178.802 10.4733 178.646 10.2667 178.532 10.02C178.426 9.76667 178.372 9.47333 178.372 9.14C178.372 8.95333 178.386 8.79 178.412 8.65C178.446 8.50333 178.482 8.37333 178.522 8.26C178.569 8.14667 178.619 8.04333 178.672 7.95C178.732 7.85667 178.792 7.76667 178.852 7.68C178.952 7.52667 179.046 7.36333 179.132 7.19C179.219 7.01667 179.262 6.84333 179.262 6.67V6.54H178.302V5.48H179.432C179.772 5.48 180.032 5.56 180.212 5.72C180.392 5.88 180.482 6.09333 180.482 6.36V6.41C180.482 6.61667 180.449 6.82 180.382 7.02C180.316 7.22 180.212 7.45 180.072 7.71C179.966 7.91 179.879 8.09667 179.812 8.27C179.746 8.43667 179.712 8.63667 179.712 8.87V9.16C179.712 9.46 179.792 9.68667 179.952 9.84C180.119 9.98667 180.342 10.06 180.622 10.06C180.922 10.06 181.152 9.97667 181.312 9.81C181.479 9.64333 181.562 9.40667 181.562 9.1V5.48H182.842V8.97C182.842 9.63667 182.649 10.1633 182.262 10.55C181.882 10.93 181.346 11.12 180.652 11.12ZM186.348 11.12C186.001 11.12 185.681 11.0733 185.388 10.98C185.094 10.88 184.841 10.7467 184.628 10.58C184.414 10.4067 184.248 10.2033 184.128 9.97C184.008 9.73 183.948 9.46667 183.948 9.18V8.68C183.948 8.42667 184.011 8.23 184.138 8.09C184.271 7.94333 184.481 7.87 184.768 7.87H185.928V8.84H185.118V9.08C185.118 9.42667 185.231 9.69 185.458 9.87C185.684 10.0433 185.998 10.13 186.398 10.13C186.784 10.13 187.084 10.0033 187.298 9.75C187.511 9.49667 187.618 9.14667 187.618 8.7V7.81C187.618 7.36333 187.498 7.01667 187.258 6.77C187.018 6.51667 186.681 6.39 186.248 6.39C185.861 6.39 185.528 6.47333 185.248 6.64C184.974 6.80667 184.771 6.99 184.638 7.19L183.858 6.49C184.051 6.17 184.351 5.90333 184.758 5.69C185.171 5.47 185.684 5.36 186.298 5.36C186.718 5.36 187.091 5.42667 187.418 5.56C187.744 5.68667 188.021 5.87667 188.248 6.13C188.481 6.37667 188.658 6.68 188.778 7.04C188.898 7.39333 188.958 7.79333 188.958 8.24C188.958 9.14 188.731 9.84667 188.278 10.36C187.824 10.8667 187.181 11.12 186.348 11.12ZM191.634 11C191.194 11 190.867 10.89 190.654 10.67C190.447 10.45 190.344 10.14 190.344 9.74V5.88C190.344 5.72 190.367 5.57667 190.414 5.45C190.467 5.31667 190.531 5.19667 190.604 5.09C190.677 4.98333 190.761 4.88667 190.854 4.8C190.947 4.70667 191.037 4.61667 191.124 4.53C191.251 4.40333 191.361 4.27333 191.454 4.14C191.554 4.00667 191.604 3.84667 191.604 3.66C191.604 3.43333 191.541 3.26333 191.414 3.15C191.287 3.03667 191.117 2.98 190.904 2.98C190.657 2.98 190.457 3.05333 190.304 3.2C190.157 3.34 190.044 3.54667 189.964 3.82L189.024 3.29C189.091 3.11 189.181 2.94 189.294 2.78C189.401 2.61333 189.534 2.47 189.694 2.35C189.854 2.23 190.044 2.13667 190.264 2.07C190.484 1.99667 190.741 1.96 191.034 1.96C191.301 1.96 191.544 1.99667 191.764 2.07C191.984 2.14333 192.171 2.24667 192.324 2.38C192.484 2.51333 192.607 2.67667 192.694 2.87C192.781 3.06333 192.824 3.28 192.824 3.52C192.824 3.8 192.757 4.04333 192.624 4.25C192.497 4.45 192.357 4.63667 192.204 4.81C192.051 4.97667 191.914 5.14 191.794 5.3C191.681 5.46 191.624 5.64 191.624 5.84V9.98H192.354V11H191.634ZM193.386 5.48H194.666V7.09L195.996 6.9C196.223 6.86667 196.393 6.79667 196.506 6.69C196.626 6.58333 196.7 6.40333 196.726 6.15L196.796 5.48H198.116L198.046 6.19C198.013 6.49667 197.893 6.75333 197.686 6.96C197.48 7.16667 197.193 7.29 196.826 7.33V7.38C197.053 7.42 197.24 7.50333 197.386 7.63C197.533 7.75 197.65 7.89 197.736 8.05C197.83 8.21 197.896 8.38333 197.936 8.57C197.983 8.75667 198.016 8.93333 198.036 9.1L198.216 11H196.886L196.716 9.02C196.683 8.64 196.593 8.36 196.446 8.18C196.306 8 196.053 7.93333 195.686 7.98L194.666 8.11V11H193.386V5.48ZM196.155 3.6H196.825V3.25C196.825 3.12333 196.795 3.03333 196.735 2.98C196.675 2.92 196.565 2.89 196.405 2.89H196.155V1.99H196.905C197.225 1.99 197.472 2.06333 197.645 2.21C197.819 2.35 197.905 2.53667 197.905 2.77C197.905 2.92333 197.862 3.07333 197.775 3.22C197.682 3.36 197.552 3.46667 197.385 3.54V3.6H199.215V4.5H196.155V3.6ZM202.298 11C201.858 11 201.531 10.89 201.318 10.67C201.111 10.45 201.008 10.14 201.008 9.74V4.79L199.698 4.24V3.97C199.698 3.66333 199.751 3.38667 199.858 3.14C199.958 2.89333 200.101 2.68333 200.288 2.51C200.481 2.33 200.711 2.19333 200.978 2.1C201.245 2.00667 201.545 1.96 201.878 1.96C202.345 1.96 202.728 2.03333 203.028 2.18C203.328 2.32 203.585 2.51667 203.798 2.77L203.038 3.48C202.938 3.34667 202.795 3.23 202.608 3.13C202.428 3.02333 202.198 2.97 201.918 2.97C201.618 2.97 201.358 3.03333 201.138 3.16C200.925 3.28 200.805 3.46667 200.778 3.72L201.728 4.1C201.941 4.18667 202.088 4.28667 202.168 4.4C202.248 4.50667 202.288 4.67333 202.288 4.9V9.98H203.018V11H202.298ZM206.151 11.12C205.811 11.12 205.497 11.08 205.211 11C204.931 10.92 204.691 10.8 204.491 10.64C204.291 10.4733 204.134 10.2667 204.021 10.02C203.914 9.76667 203.861 9.47333 203.861 9.14C203.861 8.95333 203.874 8.79 203.901 8.65C203.934 8.50333 203.971 8.37333 204.011 8.26C204.057 8.14667 204.107 8.04333 204.161 7.95C204.221 7.85667 204.281 7.76667 204.341 7.68C204.441 7.52667 204.534 7.36333 204.621 7.19C204.707 7.01667 204.751 6.84333 204.751 6.67V6.54H203.791V5.48H204.921C205.261 5.48 205.521 5.56 205.701 5.72C205.881 5.88 205.971 6.09333 205.971 6.36V6.41C205.971 6.61667 205.937 6.82 205.871 7.02C205.804 7.22 205.701 7.45 205.561 7.71C205.454 7.91 205.367 8.09667 205.301 8.27C205.234 8.43667 205.201 8.63667 205.201 8.87V9.16C205.201 9.46 205.281 9.68667 205.441 9.84C205.607 9.98667 205.834 10.06 206.121 10.06C206.414 10.06 206.641 9.98667 206.801 9.84C206.961 9.68667 207.041 9.47 207.041 9.19V8.39C207.041 8.11 206.997 7.89333 206.911 7.74C206.831 7.58667 206.674 7.51 206.441 7.51H206.321V6.55H206.521C206.701 6.55 206.847 6.5 206.961 6.4C207.081 6.29333 207.141 6.11667 207.141 5.87V5.27H208.391V5.77C208.391 6.05 208.311 6.29 208.151 6.49C207.997 6.69 207.734 6.82333 207.361 6.89V6.96C208.041 7.17333 208.381 7.79667 208.381 8.83C208.381 9.18333 208.327 9.50333 208.221 9.79C208.121 10.07 207.974 10.31 207.781 10.51C207.587 10.7033 207.351 10.8533 207.071 10.96C206.797 11.0667 206.491 11.12 206.151 11.12ZM209.625 7.66C209.625 7.31333 209.685 7 209.805 6.72C209.925 6.43333 210.099 6.19 210.325 5.99C210.552 5.79 210.825 5.63667 211.145 5.53C211.472 5.41667 211.839 5.36 212.245 5.36C212.645 5.36 213.005 5.41667 213.325 5.53C213.652 5.63667 213.929 5.79 214.155 5.99C214.382 6.19 214.555 6.43333 214.675 6.72C214.802 7 214.865 7.31333 214.865 7.66V11H213.585V7.73C213.585 7.30333 213.465 6.97333 213.225 6.74C212.992 6.50667 212.665 6.39 212.245 6.39C211.825 6.39 211.495 6.50667 211.255 6.74C211.022 6.97333 210.905 7.30333 210.905 7.73V8.95H210.955C210.989 8.81 211.039 8.67667 211.105 8.55C211.179 8.41667 211.272 8.3 211.385 8.2C211.499 8.1 211.632 8.02 211.785 7.96C211.945 7.89333 212.129 7.86 212.335 7.86H212.615V9.07H212.215C211.789 9.07 211.462 9.13667 211.235 9.27C211.015 9.39667 210.905 9.61 210.905 9.91V11H209.625V7.66ZM218.437 11.12C218.057 11.12 217.714 11.0533 217.407 10.92C217.107 10.7867 216.854 10.5967 216.647 10.35C216.44 10.1033 216.28 9.80333 216.167 9.45C216.06 9.09 216.007 8.68667 216.007 8.24C216.007 7.8 216.067 7.40333 216.187 7.05C216.314 6.69667 216.49 6.39667 216.717 6.15C216.95 5.89667 217.23 5.70333 217.557 5.57C217.89 5.43 218.26 5.36 218.667 5.36C219.054 5.36 219.404 5.41667 219.717 5.53C220.03 5.63667 220.297 5.79333 220.517 6C220.737 6.2 220.907 6.44667 221.027 6.74C221.147 7.02667 221.207 7.35 221.207 7.71V11H219.927V7.79C219.927 7.35 219.814 7.00667 219.587 6.76C219.367 6.51333 219.057 6.39 218.657 6.39C218.244 6.39 217.92 6.52333 217.687 6.79C217.46 7.05 217.347 7.41 217.347 7.87V8.6C217.347 9.59333 217.764 10.09 218.597 10.09C218.67 10.09 218.734 10.09 218.787 10.09C218.847 10.0833 218.907 10.0733 218.967 10.06L219.117 11.06C219.01 11.0867 218.89 11.1033 218.757 11.11C218.63 11.1167 218.524 11.12 218.437 11.12ZM216.751 3.6H220.041V2.77H221.211V4.57H216.751V3.6ZM223.165 8.9L222.755 5.99V4.02H224.115V5.99L223.725 8.9H223.165ZM223.435 11.12C223.148 11.12 222.941 11.0533 222.815 10.92C222.688 10.7867 222.625 10.6167 222.625 10.41V10.21C222.625 10.0033 222.688 9.83333 222.815 9.7C222.941 9.56667 223.148 9.5 223.435 9.5C223.715 9.5 223.918 9.56667 224.045 9.7C224.171 9.83333 224.235 10.0033 224.235 10.21V10.41C224.235 10.6167 224.171 10.7867 224.045 10.92C223.918 11.0533 223.715 11.12 223.435 11.12Z" fill="white"/>
</svg>
